<svg width="1430" height="1100" viewBox="0 0 1430 1100" fill="none" xmlns="http://www.w3.org/2000/svg">
<g clip-path="url(#clip0_6_406)">
<g opacity="0.17">
<path d="M-0.462891 -27.75V1185.75" stroke="#8FFF00"/>
<path d="M109.537 -27.75V1185.75" stroke="#8FFF00"/>
<path d="M219.537 -27.75V1185.75" stroke="#8FFF00"/>
<path d="M329.537 -27.75V1185.75" stroke="#8FFF00"/>
<path d="M439.537 -27.75V1185.75" stroke="#8FFF00"/>
<path d="M549.537 -27.75V1185.75" stroke="#8FFF00"/>
<path d="M659.537 -27.75V1185.75" stroke="#8FFF00"/>
<path d="M769.537 -27.75V1185.75" stroke="#8FFF00"/>
<path d="M879.537 -27.75V1185.75" stroke="#8FFF00"/>
<path d="M989.537 -27.75V1185.75" stroke="#8FFF00"/>
<path d="M1099.54 -27.75V1185.75" stroke="#8FFF00"/>
<path d="M1209.54 -27.75V1185.75" stroke="#8FFF00"/>
<path d="M1319.54 -27.75V1185.75" stroke="#8FFF00"/>
<path d="M1429.54 -27.75V1185.75" stroke="#8FFF00"/>
<path d="M-17 1100H1455" stroke="#8FFF00"/>
<path d="M-17 990L1455 990" stroke="#8FFF00"/>
<path d="M-17 880L1455 880" stroke="#8FFF00"/>
<path d="M-17 770L1455 770" stroke="#8FFF00"/>
<path d="M-17 660L1455 660" stroke="#8FFF00"/>
<path d="M-17 550L1455 550" stroke="#8FFF00"/>
<path d="M-17 440L1455 440" stroke="#8FFF00"/>
<path d="M-17 330L1455 330" stroke="#8FFF00"/>
<path d="M-17 220L1455 220" stroke="#8FFF00"/>
<path d="M-17 110L1455 110" stroke="#8FFF00"/>
<path d="M-17 0L1455 0" stroke="#8FFF00"/>
</g>
</g>
<defs>
<clipPath id="clip0_6_406">
<rect width="1430" height="1100" fill="white"/>
</clipPath>
</defs>
</svg>
