<svg width="145" height="43" viewBox="0 0 145 43" fill="none" xmlns="http://www.w3.org/2000/svg">
<path d="M129.084 22.2141H20.4915L4.57764e-05 42.4088H108.757L129.084 22.2141Z" fill="url(#paint0_linear_32_302)"/>
<path d="M43.1168 15.5562H37.2792L43.0851 9.75033C43.0159 9.58316 42.9455 9.43528 42.8741 9.30669C42.8337 9.16524 42.7777 9.03022 42.7063 8.90163C42.653 8.77304 42.5971 8.63802 42.5385 8.49657C42.4981 8.35512 42.4433 8.20081 42.374 8.03364H36.6183L29.0957 15.5562H23.2581L38.014 0.80038H43.8516L39.8781 4.77385H48.1707L49.8485 8.82447L43.1168 15.5562ZM75.66 4.77385L63.3731 17.0607L56.2483 20.0119H41.4635L44.7233 16.7521H57.8714L59.0673 15.5562H48.2924L47.3336 13.2416L55.8014 4.77385H61.6389L54.1164 12.2964H62.3271L69.8497 4.77385H75.66ZM88.5963 8.03364H80.4128L76.1307 12.3157H81.8864C82.6936 11.9814 83.383 11.6921 83.9547 11.4477C84.5445 11.2034 85.243 10.9141 86.0502 10.5797L88.5963 8.03364ZM77.835 4.77385H97.6936L90.9426 11.5249L81.1828 15.5562H72.8902L68.4345 20.0119H62.597L77.835 4.77385ZM109.547 8.84376L110.357 8.03364H102.174L101.364 8.84376H109.547ZM112.781 11.4477H98.7596L97.9109 12.2964H111.932L108.672 15.5562H92.9871C92.8828 15.2605 92.7736 14.9969 92.6595 14.7654C92.5636 14.5339 92.4678 14.3025 92.3719 14.071C92.2942 13.8395 92.2074 13.6081 92.1115 13.3766C92.0285 13.1323 91.9193 12.8687 91.784 12.5858L99.5959 4.77385H116.181L117.14 7.08849L112.781 11.4477ZM123.938 8.03364L116.415 15.5562H110.578L118.409 7.72502L125.561 4.77385H138.518L135.258 8.03364H123.938Z" fill="#545454"/>
<path d="M67.7176 34.9278L66.9074 35.7379H75.0911L75.9013 34.9278H67.7176ZM84.278 28.2152L85.5004 31.1664L77.669 38.9978H61.0833C60.9874 38.7664 60.9022 38.5606 60.8276 38.3806C60.7659 38.1877 60.6913 38.0076 60.6039 37.8405C60.5293 37.6604 60.4548 37.4804 60.3802 37.3004C60.3185 37.1075 60.2333 36.9017 60.1245 36.6831L64.5032 32.3045H78.5246L79.3541 31.475H65.3326L68.5925 28.2152H84.278Z" fill="black"/>
<path d="M122.605 27.5015H114.912L114.179 28.2344H120.126L116.885 31.475H110.939L103.416 38.9978H97.578L105.101 31.475H96.0987L88.5759 38.9978H82.7382L90.261 31.475H86.8511L90.0917 28.2344H93.5016L94.5239 27.2121C95.238 26.9163 95.8744 26.6527 96.4332 26.4213C96.992 26.1898 97.5444 25.9647 98.0904 25.7461C98.6492 25.5147 99.208 25.2832 99.7668 25.0517C100.357 24.8074 100.993 24.5438 101.676 24.2609H111.006L107.765 27.5015H100.072L99.3393 28.2344H108.341L109.364 27.2121C110.078 26.9163 110.714 26.6527 111.273 26.4213C111.832 26.1898 112.384 25.9647 112.93 25.7461C113.489 25.5147 114.048 25.2832 114.607 25.0517C115.197 24.8074 115.833 24.5438 116.516 24.2609H125.845L122.605 27.5015Z" fill="black"/>
<rect width="3.53408" height="3.53408" transform="matrix(1 0 -0.707107 0.707107 109.531 36.8553)" fill="black"/>
<defs>
<linearGradient id="paint0_linear_32_302" x1="19.7328" y1="27.5644" x2="79.2644" y2="27.5644" gradientUnits="userSpaceOnUse">
<stop stop-color="#323232" stop-opacity="0"/>
<stop offset="0.9999" stop-color="#414141"/>
</linearGradient>
</defs>
</svg>
