<svg width="275" height="83" viewBox="0 0 275 83" fill="none" xmlns="http://www.w3.org/2000/svg">
<path d="M255.679 43H40.5877L0 83H215.416L255.679 43Z" fill="url(#paint0_linear_6_440)"/>
<path d="M85.1021 30.1126H73.5395L85.0394 18.6128C84.9022 18.2817 84.7629 17.9888 84.6214 17.7341C84.5413 17.4539 84.4306 17.1865 84.289 16.9318C84.1835 16.6771 84.0728 16.4096 83.9567 16.1295C83.8767 15.8493 83.7681 15.5436 83.6309 15.2125H72.2305L57.3304 30.1126H45.7678L74.995 0.885498H86.5575L78.6872 8.75581H95.1125L98.4358 16.7789L85.1021 30.1126Z" fill="#8FFF00"/>
<path d="M149.561 8.75581L125.224 33.0926L111.112 38.9381H81.8274L88.2842 32.4814H114.327L116.696 30.1126H95.3535L93.4545 25.528L110.227 8.75581H121.789L106.889 23.6559H123.152L138.052 8.75581H149.561Z" fill="#8FFF00"/>
<path d="M175.184 15.2125H158.975L150.493 23.6941H161.894C163.493 23.0319 164.858 22.4588 165.99 21.9749C167.159 21.4909 168.542 20.9179 170.141 20.2556L175.184 15.2125ZM153.869 8.75581H193.203L179.831 22.1277L160.5 30.1126H144.075L135.249 38.9381H123.687L153.869 8.75581Z" fill="#8FFF00"/>
<path d="M216.682 16.8171L218.286 15.2125H202.077L200.472 16.8171H216.682ZM223.086 21.9749H195.315L193.634 23.6559H221.405L214.949 30.1126H183.881C183.674 29.5268 183.458 29.0047 183.232 28.5462C183.042 28.0877 182.852 27.6293 182.662 27.1708C182.509 26.7123 182.337 26.2539 182.147 25.7954C181.982 25.3115 181.766 24.7893 181.498 24.229L196.971 8.75581H229.822L231.721 13.3405L223.086 21.9749Z" fill="#8FFF00"/>
<path d="M245.185 15.2125L230.285 30.1126H218.723L234.234 14.6012L248.4 8.75581H274.065L267.608 15.2125H245.185Z" fill="#8FFF00"/>
<path d="M134.129 68.1816L132.525 69.7863H148.734L150.339 68.1816H134.129ZM166.931 54.8858L169.352 60.7314L153.84 76.2432H120.989C120.799 75.7847 120.63 75.3772 120.482 75.0206C120.36 74.6385 120.212 74.2819 120.039 73.9508C119.891 73.5942 119.744 73.2376 119.596 72.881C119.474 72.499 119.305 72.0914 119.09 71.6584L127.762 62.9856H155.535L157.178 61.3427H129.405L135.862 54.8858H166.931Z" fill="black"/>
<path d="M242.845 53.4722H227.608L226.156 54.924H237.935L231.517 61.3427H219.738L204.837 76.2432H193.274L208.175 61.3427H190.344L175.444 76.2432H163.881L178.781 61.3427H172.027L178.446 54.924H185.2L187.225 52.8991C188.639 52.3132 189.9 51.7911 191.007 51.3326C192.114 50.8741 193.208 50.4284 194.289 49.9954C195.396 49.5369 196.503 49.0784 197.61 48.6199C198.778 48.136 200.039 47.6138 201.392 47.0535H219.871L213.452 53.4722H198.215L196.763 54.924H214.594L216.618 52.8991C218.033 52.3132 219.293 51.7911 220.4 51.3326C221.507 50.8741 222.601 50.4284 223.683 49.9954C224.789 49.5369 225.896 49.0784 227.003 48.6199C228.172 48.136 229.432 47.6138 230.785 47.0535H249.264L242.845 53.4722Z" fill="black"/>
<rect width="7" height="7" transform="matrix(1 0 -0.707107 0.707107 216.95 72)" fill="black"/>
<defs>
<linearGradient id="paint0_linear_6_440" x1="39.0849" y1="53.5974" x2="157" y2="53.5974" gradientUnits="userSpaceOnUse">
<stop stop-color="#8FFF00" stop-opacity="0"/>
<stop offset="0.9999" stop-color="#8FFF00"/>
</linearGradient>
</defs>
</svg>
