<svg width="235" height="235" viewBox="0 0 235 235" fill="none" xmlns="http://www.w3.org/2000/svg">
<path d="M63.1706 151.243C58.8995 144.44 55.8988 136.95 54.347 129.218C52.7951 121.486 52.7237 113.669 54.1371 106.233C57.4016 88.6637 67.0609 73.735 81.1852 64.4293L81.2896 64.3592C109.962 45.1263 148.799 52.4379 168.552 80.5555C168.832 80.9275 169.098 81.3253 169.357 81.7113C179.369 96.6375 182.185 114.305 178.62 130.604C174.858 147.066 165.42 160.957 152.002 169.778L151.898 169.848C122.841 189.254 83.4093 181.46 63.9344 152.426C63.6754 152.04 63.4086 151.643 63.1706 151.243Z" fill="url(#paint0_linear_115_124)"/>
<defs>
<linearGradient id="paint0_linear_115_124" x1="81.2885" y1="64.3575" x2="152.004" y2="169.781" gradientUnits="userSpaceOnUse">
<stop stop-color="#8FFF00"/>
<stop offset="1" stop-color="#8FFF00" stop-opacity="0"/>
</linearGradient>
</defs>
</svg>
